<svg id="logo-anim" xmlns="http://www.w3.org/2000/svg" xmlns:xlink="http://www.w3.org/1999/xlink" viewBox="0 0 512 512" shape-rendering="geometricPrecision" text-rendering="geometricPrecision">
<style><![CDATA[
#logo-anim-s-path1_tr {animation: logo-anim-s-path1_tr__tr 3000ms linear 1 normal forwards}@keyframes logo-anim-s-path1_tr__tr { 0% {transform: translate(205.470405px,106.641158px) rotate(-360deg)} 33.333333% {transform: translate(205.470405px,106.641158px) rotate(0deg)} 100% {transform: translate(205.470405px,106.641158px) rotate(0deg)}} #logo-anim-s-path2_ts {animation: logo-anim-s-path2_ts__ts 3000ms linear 1 normal forwards}@keyframes logo-anim-s-path2_ts__ts { 0% {transform: translate(332.586349px,373.542641px) scale(0,0)} 40% {transform: translate(332.586349px,373.542641px) scale(0,0)} 63.333333% {transform: translate(332.586349px,373.542641px) scale(1,1)} 100% {transform: translate(332.586349px,373.542641px) scale(1,1)}} #logo-anim-s-path3_tr {animation: logo-anim-s-path3_tr__tr 3000ms linear 1 normal forwards}@keyframes logo-anim-s-path3_tr__tr { 0% {transform: translate(245.747093px,227.421394px) rotate(-360deg)} 16.666667% {transform: translate(245.747093px,227.421394px) rotate(-360deg)} 43.333333% {transform: translate(245.747093px,227.421394px) rotate(0deg)} 100% {transform: translate(245.747093px,227.421394px) rotate(0deg)}} #logo-anim-s-path3_ts {animation: logo-anim-s-path3_ts__ts 3000ms linear 1 normal forwards}@keyframes logo-anim-s-path3_ts__ts { 0% {transform: scale(0,0)} 16.666667% {transform: scale(0,0)} 43.333333% {transform: scale(1,1)} 100% {transform: scale(1,1)}} #logo-anim-s-path4_ts {animation: logo-anim-s-path4_ts__ts 3000ms linear 1 normal forwards}@keyframes logo-anim-s-path4_ts__ts { 0% {transform: translate(101px,304.500168px) scale(0,0)} 36.666667% {transform: translate(101px,304.500168px) scale(0,0)} 60% {transform: translate(101px,304.500168px) scale(1,1)} 100% {transform: translate(101px,304.500168px) scale(1,1)}}
]]></style>
<g id="logo-anim-s-path1_tr" transform="translate(205.470405,106.641158) rotate(-360)"><path id="logo-anim-s-path1" d="M74.8299,128.568c-.6612-.339-.7507-1.245-.1665-1.685L205.599,28.2135c.129-.0975.281-.1616.442-.1865L338.648,7.53487c.993-.1535,1.589,1.09008.836,1.7441L216.429,116.112c-.486.422-.438,1.194.098,1.57l94.007,65.999c.709.497.516,1.584-.317,1.783l-84.705,20.269c-.233.056-.481.025-.697-.086L74.8299,128.568Z" transform="translate(-207.049188,-106.641158)" fill="#384b8e"/></g><g id="logo-anim-s-path2_ts" transform="translate(332.586349,373.542641) scale(0,0)"><path id="logo-anim-s-path2" d="M295.542,246.481c.194-.859,1.321-1.076,1.808-.348l88.124,131.506c.104.155.162.337.168.524l3.529,122.191c.029,1.016-1.302,1.432-1.846.577L303.868,369.628l-15.913-27.027c-.069-.117-.161-.218-.271-.298l-11.275-8.197c-.32-.233-.471-.634-.383-1.023l19.516-86.602Z" transform="translate(-332.586349,-373.542641)" fill="#384b8e"/></g><g id="logo-anim-s-path3_tr" transform="translate(245.747093,227.421394) rotate(-360)"><g id="logo-anim-s-path3_ts" transform="scale(0,0)"><path id="logo-anim-s-path3" d="M399.047,325.569c.379.62-.095,1.424-.87,1.475L216.314,339.147c-.163.011-.325-.014-.472-.074L92.9034,289.198c-.9293-.377-.71-1.682.3103-1.846L260.414,260.467c.709-.113,1.119-.826.782-1.403-3.519-6.023-20.578-34.095-45.13-56.084-24.96-22.356-26.018-76.063-25.988-86.314.003-.755.886-1.218,1.562-.836l120.383,67.945c.142.08.259.192.341.326l86.683,141.468Z" transform="translate(-245.747093,-227.421394)" fill="#384b8e"/></g></g><g id="logo-anim-s-path4_ts" transform="translate(101,304.500168) scale(0,0)"><path id="logo-anim-s-path4" d="M75,128l52,27.153c0,0-8.814,324.626-16.305,325.842-7.492,1.215-11.4577-205.88-11.4577-205.88l-6.6102,12.969L75,128Z" transform="translate(-101,-304.500168)" fill="#384b8e"/></g></svg>
