<?xml version="1.0" standalone="no"?>
<!DOCTYPE svg PUBLIC "-//W3C//DTD SVG 20010904//EN"
 "http://www.w3.org/TR/2001/REC-SVG-20010904/DTD/svg10.dtd">
<svg version="1.0" xmlns="http://www.w3.org/2000/svg"
 width="700.000000pt" height="700.000000pt" viewBox="0 0 700.000000 700.000000"
 preserveAspectRatio="xMidYMid meet">
<metadata>
Created by potrace 1.14, written by Peter Selinger 2001-2017
</metadata>
<g transform="translate(0.000000,700.000000) scale(0.100000,-0.100000)"
fill="#000000" stroke="none">
<path d="M4570 6889 c-19 -4 -51 -10 -70 -13 -117 -18 -441 -67 -470 -71 -19
-3 -89 -14 -155 -25 -66 -10 -142 -22 -170 -26 -27 -3 -59 -8 -70 -11 -11 -2
-38 -6 -60 -9 -22 -3 -92 -14 -155 -24 -63 -11 -135 -22 -160 -25 -37 -5 -162
-25 -320 -50 -14 -2 -47 -7 -75 -11 -31 -4 -63 -16 -84 -32 -19 -15 -123 -93
-230 -174 -108 -80 -200 -150 -206 -155 -5 -4 -118 -89 -250 -188 -132 -99
-247 -185 -255 -192 -8 -7 -195 -148 -415 -314 -321 -241 -400 -305 -398 -323
3 -43 13 -142 17 -166 3 -14 7 -54 11 -90 3 -36 7 -78 10 -95 2 -16 7 -61 11
-100 3 -38 7 -72 9 -75 1 -3 6 -43 9 -88 4 -46 9 -100 12 -120 5 -41 11 -88
19 -172 3 -30 8 -71 10 -90 3 -19 7 -60 10 -90 3 -30 8 -71 10 -90 2 -19 9
-80 15 -135 6 -55 13 -116 15 -135 3 -19 7 -60 10 -90 6 -59 10 -96 20 -176 4
-28 8 -68 10 -90 4 -48 14 -137 20 -184 2 -19 7 -64 11 -100 7 -70 11 -101 13
-111 0 -3 19 -12 42 -19 22 -8 42 -18 46 -22 3 -5 7 -71 8 -146 8 -295 22
-781 29 -972 18 -468 25 -615 41 -875 12 -193 19 -275 30 -365 2 -19 7 -57 10
-85 7 -68 21 -125 33 -137 10 -10 27 49 37 130 3 23 7 59 10 80 2 20 7 73 10
117 3 44 8 105 10 135 11 154 22 326 30 485 3 61 8 137 10 170 2 33 7 132 10
220 4 88 9 189 10 225 2 36 6 135 10 220 3 85 8 196 10 245 3 50 7 164 10 255
3 90 8 166 10 168 3 3 292 -112 372 -149 24 -10 46 -19 50 -19 4 0 43 -15 88
-34 44 -18 166 -68 270 -110 328 -133 389 -158 410 -167 68 -29 97 -37 117
-34 13 2 77 6 143 10 66 3 140 8 165 10 52 4 177 13 305 20 50 3 113 8 142 11
51 5 78 -2 105 -29 7 -7 31 -25 53 -40 31 -21 65 -70 165 -239 107 -181 278
-454 455 -728 83 -130 651 -1022 670 -1054 66 -111 112 -176 123 -176 10 0 12
38 7 192 -3 106 -7 276 -10 378 -3 102 -8 253 -10 335 -2 83 -7 242 -10 355
-4 113 -8 255 -10 315 l-3 110 -94 140 c-52 77 -149 222 -217 323 -68 101
-121 185 -119 187 1 2 50 6 108 10 58 3 123 8 145 10 22 2 92 7 155 11 63 3
126 8 140 9 14 2 35 3 47 4 17 1 21 5 16 18 -4 10 -102 173 -219 363 -116 190
-341 557 -499 815 -158 259 -311 508 -340 555 -28 47 -68 111 -88 143 -26 44
-50 68 -94 95 -136 84 -1253 875 -1253 887 0 8 6 18 14 22 8 4 32 24 53 43 21
20 142 125 268 234 127 109 259 224 294 255 89 78 91 80 157 136 32 28 65 57
74 65 9 8 45 40 80 70 36 30 67 57 70 60 3 3 55 47 115 99 61 52 115 99 120
105 6 6 37 33 70 61 33 27 65 55 70 61 6 6 60 53 120 105 142 122 186 161 181
166 -8 8 -43 9 -76 2z m-2648 -2108 c95 -49 256 -132 358 -185 102 -52 281
-144 398 -203 l214 -108 132 -130 c73 -71 153 -155 180 -185 131 -151 380
-509 365 -524 -4 -4 -183 -36 -284 -51 -22 -4 -47 -8 -55 -10 -8 -2 -35 -7
-60 -10 -25 -3 -115 -17 -200 -31 -85 -14 -166 -27 -180 -29 -14 -2 -68 -11
-120 -20 -52 -9 -108 -18 -125 -21 -16 -2 -41 -6 -55 -9 -14 -2 -43 -7 -65
-10 -80 -12 -361 -56 -380 -60 -18 -4 -41 -8 -120 -19 -39 -6 -101 -16 -120
-20 -11 -2 -44 -7 -72 -11 l-52 -7 4 134 c3 73 7 194 10 268 2 74 7 218 10
320 3 102 8 237 10 300 6 167 17 553 18 638 1 39 4 72 8 72 4 0 85 -40 181
-89z m-563 -1626 c2 -72 2 -75 -21 -76 -13 0 -33 -2 -44 -4 -20 -4 -18 2 18
75 21 44 40 80 41 80 2 0 4 -34 6 -75z"/>
</g>
</svg>
